<?xml version="1.0" encoding="utf-8"?>
<!-- Generator: Adobe Illustrator 27.3.1, SVG Export Plug-In . SVG Version: 6.00 Build 0)  -->
<svg version="1.1" id="Layer_1" xmlns="http://www.w3.org/2000/svg" xmlns:xlink="http://www.w3.org/1999/xlink" x="0px" y="0px"
	 viewBox="0 0 512 512" style="enable-background:new 0 0 512 512;" xml:space="preserve">
<style type="text/css">
	.st0{stroke:#000000;stroke-width:6;stroke-miterlimit:10;}
</style>
<g transform="translate(0.000000,512.000000) scale(0.100000,-0.100000)">
	<path class="st0" d="M1145,5065c-40-39-33-77,21-132c86-88,127-187,214-513c61-230,101-351,145-440c144-287,379-376,711-269
		c53,17,97,29,98,27c15-19,103-237,130-318c62-190,137-545,119-560c-5-4-43-12-87-18c-95-15-186-56-253-116l-48-44l-70,19
		c-39,10-89,18-112,18c-106,2-240-51-316-124l-45-43l-104-4c-135-5-197-29-282-108c-65-62-107-126-125-197l-12-43H820
		c-378,0-350,12-350-147c1-316,107-687,284-986C1144,403,1877,2,2640,33c1018,42,1851,798,1995,1809c8,57,15,151,15,211
		c0,159,28,147-350,147h-309l-12,42c-17,65-46,116-97,171c-92,97-185,137-323,137h-89l-47,46c-77,74-208,125-316,123
		c-23,0-72-8-108-17l-66-18l-53,48c-29,26-73,55-96,65c-24,10-44,21-44,25c0,42,127,314,173,371l22,27l90-44c254-127,462-122,633,15
		c111,88,196,237,324,568c127,329,185,435,277,502c45,33,59,67,45,108c-17,48-42,53-239,47c-349-11-590-63-831-181
		c-407-198-584-532-445-840c28-61,28-62,10-86c-11-13-36-52-56-86s-38-61-40-60c-1,2-16,55-32,118c-40,153-101,328-157,448l-45,98
		l40,58c60,86,83,154,89,267c4,85,1,107-21,180c-15,46-43,112-64,148c-50,84-197,233-298,299c-225,148-530,252-868,296
		C1189,5095,1174,5095,1145,5065z M1530,4880c214-44,436-131,590-231c107-70,230-201,276-294c37-75,39-84,39-174c0-82-4-104-25-150
		l-25-54l-64,88c-87,119-195,225-299,293c-113,74-166,74-193,3c-17-43,6-76,84-122c85-50,232-194,295-289l43-65l-68-24
		c-56-20-88-24-183-25c-134-1-167,10-242,85c-86,86-140,221-248,629c-35,129-77,256-114,342c-6,13-3,16,11,13
		C1417,4903,1472,4891,1530,4880z M4030,4255c0-3-12-24-27-48c-38-61-75-145-165-377c-98-253-153-368-216-445
		c-96-120-195-159-332-132c-75,14-250,82-250,97c0,14,145,145,215,195c38,27,114,72,169,100c79,39,102,56,109,77c11,35-9,78-45,96
		c-24,11-35,10-95-14c-131-52-267-142-391-258c-38-36-72-66-75-66s-11,26-18,58c-42,200,109,412,396,555c150,74,386,136,600,155
		c55,5,106,10,113,11C4024,4259,4030,4258,4030,4255z M2705,2656c33-15,78-49,118-90c37-38,73-66,85-66c11,0,46,12,78,27
		c120,56,270,26,347-69c69-87,75-91,115-82c20,4,76,8,123,9c78,0,90-3,135-30c47-29,114-112,114-141c0-12-192-14-1260-14
		s-1260,2-1260,14c0,29,67,112,114,141c45,27,57,30,135,30c47-1,103-5,123-9c40-9,46-5,115,82c79,98,225,125,357,65
		c83-37,108-32,152,27c37,52,121,109,181,126C2543,2695,2639,2686,2705,2656z M1238,2001c26-22,96-73,157-113
		c145-96,150-106,158-255c8-163,27-217,124-345c78-103,113-191,140-356s50-225,113-288c66-67,135-77,221-33c68,34,101,84,133,201
		c11,39,31,73,62,110c88,102,129,201,145,351s51,193,204,247c107,37,130,51,155,93c44,72,16,173-93,331l-67,96h490
		c269,0,490-2,490-5c0-2-26-44-57-92c-118-181-149-271-140-417c11-197,131-414,367-660l95-98l-79-75c-43-40-122-105-175-142
		C3096,135,2336,75,1699,395c-194,97-325,191-483,344c-262,255-438,555-527,896c-30,117-59,296-59,364v41h281h280L1238,2001z
		 M2572,1933c85-125,138-213,138-230c0-6-30-21-67-34c-197-64-280-157-304-339c-15-110-43-207-71-246c-13-17-44-58-69-91
		c-27-36-53-85-63-119c-29-96-36-111-61-122c-45-21-75,41-100,206c-26,180-74,300-171,427c-71,94-84,132-93,275
		c-12,189-40,240-181,331l-75,49h522h523L2572,1933z M4490,1999c0-132-62-407-129-579c-70-175-194-389-291-500l-30-35l-66,70
		c-148,155-259,311-310,432c-25,59-29,81-29,168c0,118,14,154,115,305c34,51,71,112,82,136l19,44h319h320V1999z"/>
</g>
</svg>
