<?xml version="1.0" encoding="utf-8"?>
<!-- Generator: Adobe Illustrator 27.3.1, SVG Export Plug-In . SVG Version: 6.00 Build 0)  -->
<svg version="1.1" id="Layer_1" xmlns="http://www.w3.org/2000/svg" xmlns:xlink="http://www.w3.org/1999/xlink" x="0px" y="0px"
	 viewBox="0 0 512 490.7" style="enable-background:new 0 0 512 490.7;" xml:space="preserve">
<style type="text/css">
	.st0{fill:#054B53;stroke:#054B53;stroke-width:6;stroke-miterlimit:10;}
</style>
<g transform="translate(0.000000,512.000000) scale(0.100000,-0.100000)">
	<path class="st0" d="M2316.3,5052.6c-537.2-52.6-1066.6-307.1-1457.6-700c-420.2-421.2-679.5-1020.8-690.3-1594.1l-1.9-127.7
		l32.2-29.2c52.6-46.8,125.8-34.1,157,27.3c5.8,11.7,10.7,51.7,10.7,88.7c0,184.3,43.9,434.8,112.1,643.5
		c230.1,696.1,819,1247.9,1525.8,1429.3c208.6,53.6,328.6,68.2,550.9,68.2c262.3,0,446.5-28.3,674.7-102.4
		c566.5-184.3,1021.8-576.2,1288.9-1108.5c27.3-54.6,49.7-103.3,49.7-108.2c0-4.9-64.3,15.6-143.3,43.9
		c-79,29.2-156,52.6-171.6,52.6c-41.9,0-94.6-55.6-94.6-100.4c0-58.5,28.3-79,195-142.3c82.9-31.2,211.6-77,284.7-102.4
		c128.7-44.8,134.5-44.8,168.7-31.2c25.3,10.7,40,26.3,53.6,56.5c35.1,79.9,195,526.5,195,544c0,80.9-100.4,126.7-162.8,74.1
		c-20.5-17.5-40-58.5-79.9-170.6l-53.6-146.2l-75.1,145.3c-128.7,250.6-261.3,428-468,628.8c-383.2,372.4-864.8,598.6-1398.1,658.1
		C2737.4,5058.5,2395.2,5060.4,2316.3,5052.6z"/>
	<path class="st0" d="M2514.2,4102.1c-11.7-5.9-74.1-77-137.5-157.9c-495.3-628.8-822.9-1199.2-880.4-1531.7
		c-26.3-156,9.7-390,86.8-553.8c164.8-352,484.6-581.1,871.6-622c486.5-53.6,961.3,251.5,1120.2,718.5
		c55.6,164.8,72.1,347.1,42.9,486.5c-70.2,336.4-393.9,891.1-874.5,1502.4C2610.7,4113.8,2580.5,4134.2,2514.2,4102.1z
		 M2633.1,3760.8c465.1-610.3,761.4-1130,792.6-1391.3c31.2-260.3-94.6-560.6-307.1-734.1c-174.5-143.3-382.2-211.6-605.4-199.9
		c-133.6,6.8-206.7,26.3-330.5,85.8c-218.4,105.3-373.4,280.8-450.4,510.9c-35.1,105.3-51.7,245.7-39,336.4
		c32.2,235,259.3,659.1,617.1,1154.3c119.9,166.7,242.8,326.6,249.6,326.6C2562.9,3849.5,2596.1,3809.6,2633.1,3760.8z"/>
	<path class="st0" d="M3182,2246.7c-16.6-8.8-41.9-43.9-66.3-92.6c-72.1-136.5-212.5-281.8-341.2-350
		c-67.3-36.1-92.6-73.1-83.8-122.8c8.8-45.8,49.7-82.9,90.7-82.9c116,0,417.3,263.2,509.9,445.6c37,73.1,40,145.3,7.8,183.3
		C3271.7,2258.4,3218.1,2267.2,3182,2246.7z"/>
	<path class="st0" d="M4787.8,2745.9c-30.2-25.3-42.9-77-43.9-177.4c-1-162.8-40.9-379.3-108.2-584
		c-137.5-417.3-406.6-795.6-754.6-1057.8c-301.3-227.2-637.6-368.5-1018.8-427c-153.1-23.4-459.2-23.4-614.2,1
		c-231.1,35.1-476.8,113.1-677.6,212.5c-347.1,174.5-663.9,463.1-870.6,793.6c-55.6,88.7-152.1,276.9-145.3,282.7
		c1.9,2.9,71.2-19.5,153.1-49.7c135.5-48.7,153.1-52.6,183.3-42.9c36.1,11.7,70.2,57.5,70.2,94.6c0,35.1-25.3,75.1-55.6,88.7
		c-81.9,38-534.3,196-558.7,196c-60.4,0-79-32.2-185.2-321.7c-53.6-147.2-97.5-276.9-97.5-287.6c0-34.1,36.1-79.9,71.2-91.6
		c27.3-9.7,40.9-8.8,68.2,2.9c41.9,16.6,41.9,16.6,104.3,186.2c27.3,75.1,51.7,137.5,53.6,140.4c2.9,1.9,16.6-22.4,30.2-53.6
		c41.9-90.7,118-224.2,190.1-330.5c379.3-560.6,991.5-934,1678.9-1023.7c131.6-16.6,425.1-19.5,557.7-4.9
		c287.6,32.2,550.9,111.1,816,245.7c771.2,390,1277.2,1169.9,1311.3,2023l5.9,147.2l-30.2,30.2
		C4883.3,2777.1,4826.8,2780,4787.8,2745.9z"/>
</g>
</svg>
