<?xml version="1.0" encoding="UTF-8"?>
<svg version="1.1" xmlns="http://www.w3.org/2000/svg" width="512" height="512">
<path d="M0 0 C1.27290436 -0.00807831 1.27290436 -0.00807831 2.57152396 -0.01631981 C5.39579959 -0.03055015 8.21960327 -0.02350802 11.04389954 -0.01637268 C13.07635371 -0.02207864 15.10880468 -0.02904377 17.14125061 -0.03717041 C22.64718171 -0.05508702 28.15295332 -0.05393682 33.65890479 -0.04822803 C38.25670385 -0.04513558 42.85447229 -0.05122891 47.45226699 -0.05726677 C58.2954999 -0.071304 69.138654 -0.06975593 79.98188782 -0.05836487 C91.17124292 -0.04687006 102.36035873 -0.06098411 113.54968232 -0.08776134 C123.15920122 -0.1098975 132.76864488 -0.11656084 142.37818748 -0.11068493 C148.11665158 -0.10731091 153.85496209 -0.1097607 159.59340477 -0.12693596 C164.98532616 -0.14237091 170.37689168 -0.13848786 175.76879883 -0.11963081 C177.74853763 -0.11593611 179.72830261 -0.11907895 181.70801735 -0.1295166 C184.40813463 -0.14266718 187.10706326 -0.13123226 189.80712891 -0.11352539 C190.59253404 -0.1231304 191.37793917 -0.1327354 192.18714446 -0.14263147 C195.90826959 -0.09233402 198.01513778 0.26031737 201.17596149 2.29400539 C204.29108068 5.49559494 204.33930517 7.28629839 204.34731007 11.64860249 C204.35176791 12.77115446 204.35622575 13.89370644 204.36081868 15.05027515 C204.36063432 16.29392422 204.36044996 17.53757329 204.36026001 18.81890869 C204.3639367 20.13199357 204.36761339 21.44507845 204.37140149 22.79795378 C204.3814386 26.4550903 204.38514102 30.11221041 204.3877908 33.76935875 C204.39168876 37.70879512 204.40126739 41.64821843 204.41000366 45.58764648 C204.42978184 55.10712321 204.43983571 64.62660102 204.44873145 74.14609316 C204.45311188 78.62584553 204.4584793 83.1055967 204.46372032 87.58534813 C204.48073348 102.47144354 204.49522873 117.35753821 204.50246906 132.24364185 C204.50437904 136.10814223 204.50629936 139.97264259 204.508255 143.83714294 C204.50873875 144.79767835 204.50922249 145.75821375 204.50972088 146.74785628 C204.51802521 162.31578377 204.5433685 177.88363451 204.57583568 193.45152847 C204.60887656 209.42434277 204.6269151 225.39711802 204.6301133 241.36996669 C204.63228109 250.34238389 204.641069 259.31468917 204.66657448 268.28707314 C204.68824089 275.92671016 204.69635196 283.56620808 204.6866077 291.20587233 C204.68205123 295.1052525 204.68402685 299.00434543 204.70336914 302.90368652 C204.72414205 307.12782845 204.71405355 311.35132844 204.70083618 315.57550049 C204.71180543 316.81245739 204.72277467 318.0494143 204.73407632 319.32385474 C204.72549543 320.45422996 204.71691454 321.58460518 204.70807362 322.7492342 C204.70905042 323.72441102 204.71002723 324.69958785 204.71103364 325.70431548 C204.06877834 329.16535302 202.60915916 330.85884179 200.21308899 333.38768005 C197.05519125 334.96662892 193.66285711 334.53939899 190.19480896 334.5415802 C189.35627156 334.54596245 188.51773416 334.55034471 187.65378654 334.55485976 C184.82736041 334.56827689 182.00096548 334.57443328 179.17451477 334.58055115 C177.1543056 334.58845017 175.13409785 334.59671899 173.1138916 334.60533142 C166.46207533 334.63158677 159.81025268 334.64686806 153.15840149 334.66111755 C150.86857474 334.66647683 148.57874802 334.67185434 146.28892136 334.67724991 C136.76002867 334.69888869 127.23113769 334.71762312 117.70222664 334.7288723 C104.05086325 334.74509368 90.39978533 334.77821622 76.74852955 334.83527315 C67.14923035 334.87402314 57.55000732 334.89351132 47.95063198 334.89879286 C42.21905003 334.90244094 36.48777232 334.91440373 30.75627518 334.9468956 C25.35700769 334.97706293 19.95822709 334.98325701 14.5588932 334.97151184 C12.58369313 334.97129179 10.60846991 334.97953934 8.63334846 334.99716568 C-5.02391756 335.11234732 -16.69232272 334.23476553 -27.10331726 324.27830505 C-34.51630792 315.95374013 -36.08576476 307.9153468 -36.05433655 297.02090454 C-36.05886766 295.87056632 -36.06339877 294.7202281 -36.06806719 293.53503114 C-36.07852448 290.35067543 -36.08003925 287.16646204 -36.07767844 283.98209465 C-36.07726974 280.54435164 -36.0883145 277.10664213 -36.09779358 273.66891479 C-36.11439291 266.93696178 -36.11990264 260.20504379 -36.12101834 253.47307201 C-36.12196931 247.99988874 -36.12608206 242.526717 -36.13241959 237.05353737 C-36.15002902 221.52938836 -36.15925891 206.00526698 -36.15775864 190.48110791 C-36.15767873 189.64453209 -36.15759881 188.80795627 -36.15751648 187.94602966 C-36.15739384 186.68963032 -36.15739384 186.68963032 -36.15726872 185.40784917 C-36.15645588 171.83455745 -36.1755937 158.26137673 -36.20379321 144.68811711 C-36.23253283 130.74465278 -36.24633292 116.80124255 -36.24460566 102.85774785 C-36.24394214 95.03215396 -36.24941797 87.20667642 -36.27096176 79.38110924 C-36.28918776 72.71809856 -36.29350931 66.05525698 -36.27994291 59.39223214 C-36.27342035 55.99458499 -36.27326977 52.59726214 -36.29064941 49.199646 C-36.306079 45.51127671 -36.29680737 41.82375741 -36.28138733 38.13540649 C-36.29681802 36.5349978 -36.29681802 36.5349978 -36.31256044 34.90225762 C-36.22018391 24.89348457 -32.71040736 16.66425936 -25.78691101 9.38768005 C-17.97529358 2.98186391 -10.02237353 -0.07735189 0 0 Z M-11.78691101 25.38768005 C-16.30933635 31.26683299 -15.93040325 37.71130502 -15.90716553 44.79656982 C-15.90801995 45.7482261 -15.90887438 46.69988237 -15.90975469 47.68037671 C-15.91140255 50.87099759 -15.90589944 54.06156596 -15.9004364 57.25218201 C-15.90015435 59.53860472 -15.90031261 61.82502753 -15.90087891 64.1114502 C-15.9011662 70.32170777 -15.89528047 76.53194609 -15.88830495 82.74219918 C-15.88206007 89.23113676 -15.88146671 95.72007477 -15.88027954 102.20901489 C-15.87752308 113.10133712 -15.87127388 123.99365222 -15.86235046 134.88597107 C-15.85316945 146.10439519 -15.84609198 157.32281739 -15.84184265 168.54124451 C-15.84157993 169.23291386 -15.8413172 169.92458322 -15.84104652 170.63721225 C-15.83974147 174.1071636 -15.83847776 177.57711496 -15.83723462 181.04706633 C-15.82687031 209.82727558 -15.80918483 238.60747765 -15.78691101 267.38768005 C-14.95673961 267.17596363 -14.95673961 267.17596363 -14.10979706 266.95997012 C-8.81997107 265.68622433 -3.92150637 265.09446407 1.5085144 265.10920715 C2.68105774 265.10052864 2.68105774 265.10052864 3.87728882 265.0916748 C6.47697644 265.07478763 9.07648582 265.07181895 11.67622375 265.0688324 C13.57966251 265.05941306 15.48309717 265.0491327 17.38652706 265.03806496 C22.46620562 265.01089047 27.54585537 264.99544125 32.62558746 264.98248291 C37.39889318 264.96851185 42.17212121 264.94388348 46.94538879 264.92015076 C60.88874463 264.85699522 74.8321734 264.81086987 88.77558899 264.76268005 C135.52215149 264.57705505 135.52215149 264.57705505 183.21308899 264.38768005 C183.21308899 184.19768005 183.21308899 104.00768005 183.21308899 21.38768005 C136.89965149 21.26393005 136.89965149 21.26393005 89.65058899 21.13768005 C75.02379822 21.08305603 75.02379822 21.08305603 60.10151672 21.02732849 C51.36513802 21.01395125 51.36513802 21.01395125 42.62875366 21.00590515 C38.73563531 21.00217659 34.84273485 20.98717914 30.94967651 20.96537781 C25.98286255 20.93793203 21.01636523 20.92971708 16.04948246 20.93539095 C14.22726264 20.93420459 12.40503169 20.92627795 10.58287704 20.91081953 C8.1188782 20.89088805 5.65610534 20.8957309 3.19207764 20.90666199 C2.48117509 20.89501133 1.77027254 20.88336067 1.03782749 20.87135696 C-4.38882224 20.93595137 -7.40876861 22.40815706 -11.78691101 25.38768005 Z M-13.16191101 291.51268005 C-15.57341591 295.77918872 -15.53893685 299.59927061 -14.78691101 304.38768005 C-12.39616813 309.44502075 -9.89235986 311.306862 -4.78691101 313.38768005 C-2.08509186 313.65911806 0.37690919 313.78142522 3.07182312 313.7484436 C3.84465751 313.75100688 4.61749191 313.75357015 5.41374552 313.7562111 C7.99339648 313.76113736 10.57245714 313.74467552 13.15205383 313.72825623 C15.0051319 313.7274097 16.85821097 313.72788559 18.71128845 313.72958374 C23.73565464 313.73044413 28.75980576 313.71281119 33.78412199 313.69186187 C39.03717679 313.67310243 44.29023657 313.6713452 49.5433197 313.66778564 C59.48797103 313.65846304 69.43252336 313.63384629 79.3771311 313.60373718 C90.69989456 313.57019992 102.02266275 313.55370884 113.34546351 313.53865087 C136.63472874 313.50729696 159.92389914 313.45392759 183.21308899 313.38768005 C183.21308899 304.14768005 183.21308899 294.90768005 183.21308899 285.38768005 C158.80458981 285.29510474 134.39613288 285.22371213 109.98749352 285.18043137 C98.65426535 285.15980167 87.32114823 285.13167317 75.98799133 285.08592224 C66.11059865 285.04606709 56.23328639 285.02025021 46.35581553 285.01132607 C41.12521003 285.00610912 35.89483462 284.9938387 30.66430283 284.96475983 C25.74118499 284.93761173 20.81839204 284.92923389 15.89520645 284.93524933 C14.08841944 284.93414883 12.28162157 284.92619135 10.47489929 284.91085815 C8.00680859 284.89093939 5.5399425 284.89574724 3.07182312 284.90666199 C2.00079127 284.88918494 2.00079127 284.88918494 0.90812242 284.87135482 C-5.29727316 284.94546871 -8.6808871 287.50334287 -13.16191101 291.51268005 Z " fill="#2F2F2F" transform="translate(171.7869110107422,88.61231994628906)"/>
<path d="M0 0 C2.32612447 1.53267055 2.32612447 1.53267055 6.15625 1.20703125 C8.42041755 0.00353004 8.42041755 0.00353004 10.71875 -1.60546875 C20.99093166 -7.98598688 31.46273138 -9.17692294 43.15625 -6.66796875 C54.25560066 -3.61885316 63.11512541 2.8706908 69.09375 12.70703125 C71.16205065 16.7953722 72.04823719 19.58491581 71.15625 24.20703125 C66.67788011 34.44330528 58.76193364 41.65225805 48.67578125 46.23828125 C37.91612122 50.37532883 27.01792704 49.82759026 16.15625 46.20703125 C15.82625 52.80703125 15.49625 59.40703125 15.15625 66.20703125 C16.64471436 66.18608398 18.13317871 66.16513672 19.66674805 66.14355469 C25.19236622 66.07112091 30.71794247 66.02521861 36.24389648 65.98730469 C38.63491881 65.96719707 41.02589201 65.93990695 43.41674805 65.90527344 C46.85477831 65.85671974 50.29215804 65.83405351 53.73046875 65.81640625 C54.79835129 65.79576111 55.86623383 65.77511597 56.96647644 65.75384521 C64.40057477 65.75160068 64.40057477 65.75160068 68.30786133 68.10644531 C70.92574656 71.08151921 71.28672471 72.7072777 71.34912109 76.57739258 C71.36518402 77.48205765 71.38124695 78.38672272 71.39779663 79.31880188 C71.44223861 83.45805125 71.48331103 87.59714012 71.50634766 91.73657227 C71.5229093 93.91994891 71.55020188 96.10327129 71.58837891 98.28637695 C71.64313444 101.43339175 71.66501989 104.57913555 71.6796875 107.7265625 C71.70235687 108.70067581 71.72502625 109.67478912 71.74838257 110.67842102 C71.7337978 115.35634436 71.69609069 117.49708697 68.79077148 121.31787109 C65.90985303 123.38371735 64.34877077 123.87933042 60.84375 124.01953125 C60.01593018 124.05264404 59.18811035 124.08575684 58.33520508 124.11987305 C57.6161499 124.14863525 56.89709473 124.17739746 56.15625 124.20703125 C56.11741699 124.98675293 56.07858398 125.76647461 56.03857422 126.56982422 C55.35576552 138.37830135 54.04638656 150.10657426 52.68212891 161.85351562 C52.27823341 165.3582069 51.89108419 168.86452127 51.50390625 172.37109375 C51.24581984 174.6107958 50.98674141 176.85038381 50.7265625 179.08984375 C50.61394073 180.13254425 50.50131897 181.17524475 50.38528442 182.24954224 C49.26651923 191.5727143 49.26651923 191.5727143 46.15625 195.20703125 C42.57850375 197.60300469 38.98238077 197.50940052 34.82080078 197.51342773 C33.72247421 197.52591301 33.72247421 197.52591301 32.60195923 197.53865051 C30.18510598 197.56271532 27.76852279 197.57151807 25.3515625 197.578125 C23.66771363 197.58709381 21.98386556 197.59621571 20.30001831 197.60548401 C16.77111882 197.62196683 13.24231413 197.62967286 9.71337891 197.63256836 C5.19830294 197.6379524 0.68412155 197.67563559 -3.83070183 197.72131252 C-7.30863678 197.75109976 -10.7863567 197.75829226 -14.26440811 197.75929451 C-15.92856062 197.76349331 -17.59271398 197.77591405 -19.25674057 197.79681206 C-21.58832783 197.82376378 -23.91784661 197.81889182 -26.24951172 197.80639648 C-27.27371216 197.82864792 -27.27371216 197.82864792 -28.31860352 197.85134888 C-31.99806698 197.79538603 -34.38180817 197.15046585 -37.24665833 194.93638611 C-40.6135349 191.39804319 -40.6135349 191.39804319 -40.99145508 187.93798828 C-41.09366867 187.12586884 -41.19588226 186.31374939 -41.30119324 185.47702026 C-41.38355728 184.60675201 -41.46592133 183.73648376 -41.55078125 182.83984375 C-41.71366386 181.46084396 -41.71366386 181.46084396 -41.87983704 180.0539856 C-42.10765365 178.10097452 -42.32372105 176.14656215 -42.52886963 174.19104004 C-42.8378941 171.26252557 -43.18122493 168.3402107 -43.53662109 165.41699219 C-44.11737363 160.61014499 -44.6687907 155.80063044 -45.20629883 150.98876953 C-45.53810339 148.02072663 -45.87519345 145.05331522 -46.21289062 142.0859375 C-46.42738447 140.18623189 -46.64158881 138.28649357 -46.85546875 136.38671875 C-46.95542648 135.50563446 -47.05538422 134.62455017 -47.15837097 133.71676636 C-47.24879166 132.90386139 -47.33921234 132.09095642 -47.43237305 131.25341797 C-47.5121489 130.54176483 -47.59192474 129.83011169 -47.67411804 129.09689331 C-47.84375 127.20703125 -47.84375 127.20703125 -47.84375 124.20703125 C-48.43542969 124.18125 -49.02710938 124.15546875 -49.63671875 124.12890625 C-54.86730666 123.75346438 -58.08979672 123.19560661 -61.84375 119.20703125 C-62.75557919 116.47154369 -62.97894235 114.81804887 -63.00488281 111.99853516 C-63.01449036 111.15400787 -63.0240979 110.30948059 -63.03399658 109.43936157 C-63.03824646 108.52995819 -63.04249634 107.62055481 -63.046875 106.68359375 C-63.05542511 105.27610367 -63.05542511 105.27610367 -63.06414795 103.84017944 C-63.07359394 101.85472744 -63.08013034 99.86925979 -63.08398438 97.88378906 C-63.09369048 94.85063261 -63.12471786 91.81815369 -63.15625 88.78515625 C-63.16278023 86.85547277 -63.16803062 84.92578445 -63.171875 82.99609375 C-63.1842218 82.09073883 -63.1965686 81.18538391 -63.20928955 80.25259399 C-63.19227377 75.42850522 -63.05249207 72.08214653 -59.84375 68.20703125 C-56.55917381 66.01731379 -55.6261519 65.96119223 -51.8215332 65.97998047 C-50.80070145 65.98013153 -49.77986969 65.98028259 -48.72810364 65.98043823 C-47.62802475 65.9907608 -46.52794586 66.00108337 -45.39453125 66.01171875 C-43.70290108 66.01596359 -43.70290108 66.01596359 -41.97709656 66.02029419 C-38.37004042 66.03150209 -34.76323127 66.05660802 -31.15625 66.08203125 C-28.71289421 66.09206025 -26.26953453 66.10118624 -23.82617188 66.109375 C-17.83193587 66.13144346 -11.83788483 66.16597769 -5.84375 66.20703125 C-5.84375 59.27703125 -5.84375 52.34703125 -5.84375 45.20703125 C-8.48375 46.19703125 -11.12375 47.18703125 -13.84375 48.20703125 C-24.5964322 50.67118759 -36.14811016 48.87603601 -45.83984375 43.5546875 C-53.19784911 38.60632132 -59.72061183 32.67073569 -62.84375 24.20703125 C-63.82816072 18.69433121 -62.26919034 15.10423576 -59.44140625 10.47265625 C-52.6140635 0.79084991 -42.72357593 -5.50483145 -30.9765625 -7.546875 C-19.56534238 -8.86355424 -9.52045597 -6.52151234 0 0 Z M-39.84375 21.20703125 C-34.11612017 25.63477346 -29.26902043 28.75657794 -21.84375 28.20703125 C-16.96591986 27.30372937 -13.73913066 26.14608902 -10.28125 22.51953125 C-9.806875 21.75640625 -9.3325 20.99328125 -8.84375 20.20703125 C-13.68711164 15.71806193 -17.59285212 13.75201816 -24.28125 12.89453125 C-30.9538464 13.70826252 -35.48045487 16.16197126 -39.84375 21.20703125 Z M25.03125 14.95703125 C24.18304688 15.281875 23.33484375 15.60671875 22.4609375 15.94140625 C19.89417276 17.35095163 18.7257189 18.76563519 17.15625 21.20703125 C21.63261245 25.26373472 26.30479519 28.03467699 32.42578125 28.30859375 C37.89949311 27.91694827 41.66405769 26.32406265 46.15625 23.20703125 C46.81625 22.21703125 47.47625 21.22703125 48.15625 20.20703125 C43.40507932 15.80350721 39.4450896 13.4798938 32.76171875 13.0546875 C29.86446826 13.22409195 27.72372659 13.88662771 25.03125 14.95703125 Z M-41.84375 87.20703125 C-41.84375 92.48703125 -41.84375 97.76703125 -41.84375 103.20703125 C-11.15375 103.20703125 19.53625 103.20703125 51.15625 103.20703125 C51.15625 97.92703125 51.15625 92.64703125 51.15625 87.20703125 C20.46625 87.20703125 -10.22375 87.20703125 -41.84375 87.20703125 Z M-26.84375 124.20703125 C-24.86375 141.36703125 -22.88375 158.52703125 -20.84375 176.20703125 C-4.34375 176.20703125 12.15625 176.20703125 29.15625 176.20703125 C30.4119246 169.92865823 31.54568537 163.89253049 32.2265625 157.56640625 C32.35549393 156.4103891 32.35549393 156.4103891 32.48703003 155.23101807 C32.66551487 153.62136851 32.84186279 152.01148063 33.01611328 150.40136719 C33.28224207 147.94788523 33.55665536 145.49542824 33.83203125 143.04296875 C34.005698 141.46750182 34.17889177 139.89198266 34.3515625 138.31640625 C34.43278351 137.59128845 34.51400452 136.86617065 34.59768677 136.11907959 C35.0289107 132.08948633 35.15625 128.2841163 35.15625 124.20703125 C14.69625 124.20703125 -5.76375 124.20703125 -26.84375 124.20703125 Z " fill="#2F2F2F" transform="translate(252.84375,137.79296875)"/>
</svg>
