<?xml version="1.0" encoding="UTF-8"?>
<svg version="1.1" xmlns="http://www.w3.org/2000/svg" width="512" height="512">
<path d="M0 0 C0.87962591 -0.02115403 1.75925182 -0.04230806 2.66553307 -0.06410313 C10.20947172 -0.1014325 16.5693092 1.4723615 22.20458984 6.81616211 C23.02443359 7.58959961 23.84427734 8.36303711 24.68896484 9.15991211 C25.73871322 10.18823705 26.7851281 11.21996801 27.82958984 12.25366211 C28.55726563 12.97295898 29.28494141 13.69225586 30.03466797 14.43334961 C35.32736957 19.67936339 40.58811391 24.9564987 45.82958984 30.25366211 C49.61086678 28.69413084 51.92789928 26.34343766 54.75146484 23.42163086 C55.70445981 22.44819624 56.65758919 21.47489321 57.61083984 20.50170898 C59.09209157 18.97722151 60.57074679 17.45033045 62.04638672 15.92041016 C70.45383364 7.22660221 77.32828607 0.18297482 90.01708984 -0.05883789 C98.58066985 -0.06803066 103.40072723 1.82876046 109.64208984 7.56616211 C115.98769304 14.47678477 116.4012423 20.43857755 116.16552734 29.66772461 C114.71175965 45.1858495 96.21640374 57.98311185 85.82958984 68.25366211 C87.4135213 72.14659601 89.9197862 74.52918919 92.91552734 77.42944336 C93.93908861 78.4325723 94.96252205 79.43583167 95.98583984 80.43920898 C97.59166757 82.00170873 99.19989792 83.56162777 100.81103516 85.11865234 C102.37336217 86.63224666 103.92599477 88.1553048 105.47802734 89.67944336 C106.4079248 90.58090088 107.33782227 91.4823584 108.29589844 92.41113281 C113.19474194 97.90710842 115.95280733 103.32693277 115.96075439 110.74760437 C115.96344896 112.07976974 115.96344896 112.07976974 115.96619797 113.43884754 C115.96140049 114.40084914 115.95660301 115.36285074 115.95166016 116.35400391 C115.94866535 117.37027957 115.94567055 118.38655523 115.94258499 119.43362713 C115.86867252 131.51517784 115.38782171 143.57860589 114.87646484 155.64819336 C114.82629463 156.85026617 114.77612442 158.05233898 114.7244339 159.29083824 C114.4596429 165.62448366 114.18889835 171.95784096 113.91308594 178.29101562 C113.63091987 184.79845134 113.37012495 191.30656797 113.11387253 197.81506824 C112.91123102 202.86261726 112.69276021 207.9093931 112.47000885 212.95609093 C112.36681972 215.3562826 112.2695473 217.75673669 112.17848969 220.1574192 C112.05000922 223.50663246 111.89900902 226.85413513 111.74267578 230.20214844 C111.71030319 231.17734436 111.6779306 232.15254028 111.64457703 233.1572876 C110.74389128 250.63146826 99.21377581 260.01705382 87.47547913 271.76167297 C86.45993744 272.78124155 85.44460279 273.8010164 84.42945474 274.82097691 C81.66652732 277.59573638 78.90056329 280.3674506 76.13401425 283.13859856 C73.14041847 286.13820078 70.14962237 289.14059261 67.15837097 292.14253235 C59.953078 299.37221812 52.74295212 306.59707425 45.53192416 313.82103923 C43.49374439 315.86293777 41.45569169 317.90496304 39.41768336 319.94703269 C26.74287265 332.64706498 14.06646941 345.34550536 1.38527775 358.03916645 C-1.54403041 360.97140388 -4.47332232 363.90365753 -7.40258789 366.8359375 C-8.13056651 367.56466217 -8.85854512 368.29338683 -9.6085837 369.04419407 C-21.41740628 380.86568748 -33.21589855 392.69743627 -45.01023214 404.53338359 C-57.13529356 416.70087317 -69.26976995 428.85890936 -81.41345125 441.00781602 C-88.22530486 447.8230805 -95.03294541 454.64244042 -101.82999992 461.47246742 C-107.61357427 467.28405404 -113.40559299 473.08705447 -119.2087838 478.87905584 C-122.16729037 481.8323809 -125.12163267 484.7895732 -128.06512833 487.75786591 C-130.76297569 490.47825046 -133.47224659 493.18670182 -136.19082791 495.88636162 C-137.62990717 497.32133052 -139.05672252 498.76856663 -140.4829697 500.2162903 C-146.58740318 506.24665339 -153.26519976 512.00709235 -162.14697266 512.88256836 C-163.35095703 512.8606543 -164.55494141 512.83874023 -165.79541016 512.81616211 C-167.00455078 512.81745117 -168.21369141 512.81874023 -169.45947266 512.82006836 C-178.50826196 511.43893736 -183.91850793 506.0830606 -190.11590576 499.81610107 C-190.98154845 498.95669835 -191.84719113 498.09729563 -192.73906541 497.2118504 C-195.12634435 494.83771989 -197.5043964 492.45499798 -199.87886977 490.06810117 C-202.4469729 487.49092162 -205.02659137 484.92531164 -207.60472107 482.35816956 C-212.64808767 477.33256511 -217.68061013 472.29623598 -222.70929495 467.25594512 C-226.79735666 463.1588403 -230.88931751 459.06566803 -234.98407745 454.97525787 C-235.56743986 454.39250839 -236.15080228 453.80975892 -236.75184233 453.20935036 C-237.93704522 452.02542642 -239.12225705 450.84151144 -240.30747774 449.65760532 C-251.41403687 438.56244525 -262.5083152 427.45507052 -273.59841731 416.34346429 C-283.10914031 406.81487094 -292.63030185 397.2968137 -302.15917969 387.78637695 C-313.23173388 376.73524137 -324.29775395 365.67762959 -335.35346532 354.60964227 C-336.53297048 353.42886295 -337.71248398 352.24809196 -338.89200592 351.06732941 C-339.47231044 350.48640779 -340.05261495 349.90548617 -340.65050445 349.30696087 C-344.73521116 345.21880424 -348.82453325 341.13529981 -352.9156723 337.05358124 C-357.90305366 332.07743222 -362.88321661 327.09419081 -367.85433617 322.10179439 C-370.38959387 319.55604299 -372.92790991 317.01355982 -375.47504234 314.47968483 C-378.2385736 311.73032009 -380.98637809 308.96557036 -383.73284912 306.19915771 C-384.53673089 305.40419883 -385.34061265 304.60923995 -386.16885448 303.79019141 C-392.609085 297.25893716 -396.74308017 291.41813445 -396.73291016 281.87866211 C-396.76578125 280.07268555 -396.76578125 280.07268555 -396.79931641 278.23022461 C-395.76465992 267.78579166 -388.10400654 260.46893433 -381.02484131 253.47990417 C-379.9823062 252.43231599 -378.94086406 251.38363918 -377.90041471 250.33397943 C-375.05562253 247.47034662 -372.19557273 244.62240281 -369.33263707 241.77692473 C-366.24102054 238.69872285 -363.16388824 235.60609816 -360.08485413 232.51531982 C-354.05776305 226.46987873 -348.01734402 220.43792777 -341.9720954 214.41064932 C-337.05827065 209.51086671 -332.14955234 204.60602158 -327.24442291 199.69753456 C-326.19608726 198.64848274 -326.19608726 198.64848274 -325.1265731 197.57823795 C-323.7066969 196.15733539 -322.2868352 194.73641834 -320.86698785 193.31548695 C-308.32000669 180.75994412 -295.76045746 168.21704752 -283.19433594 155.68066406 C-271.00786192 143.52302917 -258.83232394 131.35457081 -246.66796875 119.17480469 C-233.41287134 105.90293744 -220.15142509 92.63747244 -206.87919259 79.38273889 C-205.46334373 77.96873436 -204.04749967 76.55472503 -202.63166046 75.14071083 C-201.93508191 74.44504437 -201.23850336 73.74937791 -200.52081637 73.03263065 C-195.61826233 68.13567687 -190.72017012 63.23428738 -185.82372284 58.33122826 C-179.85482538 52.35459076 -173.87872134 46.38527056 -167.89339939 40.42507984 C-164.84122469 37.38538408 -161.79228462 34.34262591 -158.7519474 31.2910862 C-155.96610536 28.49517371 -153.17112565 25.70874173 -150.36871722 22.9294372 C-149.3591895 21.92505139 -148.35297371 20.9173227 -147.3505356 19.90586092 C-139.48170492 11.97214087 -132.07919984 5.46111966 -120.54751587 4.94358826 C-119.62301132 4.90014282 -118.69850677 4.85669739 -117.74598694 4.81193542 C-116.2344529 4.7471978 -116.2344529 4.7471978 -114.69238281 4.68115234 C-113.62498367 4.63223846 -112.55758453 4.58332458 -111.45783997 4.53292847 C-107.91689226 4.37185007 -104.37570934 4.21684167 -100.83447266 4.06225586 C-98.35939577 3.95180202 -95.88432877 3.84112663 -93.40927124 3.73023987 C-87.53900002 3.46835512 -81.66854793 3.21082656 -75.79802167 2.95473009 C-69.85513435 2.69491767 -63.91264505 2.42653357 -57.97016335 2.15760708 C-52.84643707 1.92674765 -47.7225125 1.70054941 -42.59852219 1.47563362 C-40.16606514 1.36827064 -37.73367139 1.259462 -35.30134964 1.14907646 C-23.53889825 0.61749484 -11.77437099 0.14620653 0 0 Z M81.3945961 22.31671906 C80.59892101 23.1138607 79.80324593 23.91100235 78.98345947 24.7322998 C77.59970879 26.10769676 77.59970879 26.10769676 76.18800354 27.51087952 C75.18329703 28.52460692 74.1787396 29.5384821 73.17431641 30.55249023 C72.10343481 31.62258036 71.03189948 32.69201659 69.95976257 33.760849 C67.05859805 36.656892 64.16683192 39.56215505 61.27681828 42.4693203 C58.24926649 45.51193504 55.21358405 48.54641709 52.17889404 51.58190918 C47.08655595 56.67793611 41.99988225 61.77955992 36.91699219 66.88500977 C30.39132396 73.43958212 23.8563922 79.98483668 17.31848526 86.52719879 C11.69675066 92.15291223 6.07928219 97.78288001 0.46249676 103.41353416 C-1.34324746 105.22337659 -3.14957759 107.03263268 -4.95598602 108.84181213 C-7.79185797 111.68257705 -10.62505824 114.52598076 -13.45619774 117.37146187 C-14.49621342 118.41599975 -15.53707277 119.45969838 -16.57882881 120.50250053 C-17.99894386 121.92436192 -19.41567117 123.3496045 -20.83221436 124.77502441 C-21.62638134 125.57216606 -22.42054832 126.36930771 -23.23878098 127.19060516 C-25.67648066 129.79416557 -27.06509005 131.56155859 -27.60791016 135.12866211 C-27.40039496 138.42082869 -27.40039496 138.42082869 -25.04541016 141.12866211 C-21.61510518 143.66410492 -20.34112873 143.75343633 -16.17041016 143.25366211 C-13.66691161 141.68924581 -13.66691161 141.68924581 -11.45631409 139.40647888 C-10.5922249 138.57961012 -9.72813572 137.75274136 -8.83786201 136.90081596 C-7.9576029 136.02725519 -7.07734379 135.15369442 -6.17041016 134.25366211 C-5.33166792 133.43856737 -4.49292568 132.62347263 -3.62876701 131.78367805 C-0.93141682 129.14451953 1.73856138 126.47991436 4.40405273 123.80859375 C5.41846534 122.79554022 6.43308966 121.78269865 7.44790649 120.77005005 C10.17069012 118.05177588 12.89036122 115.33040841 15.60929418 112.60828328 C18.4647022 109.75032336 21.32257198 106.89482672 24.18003845 104.03892517 C28.96695625 99.2538185 33.75177942 94.46662497 38.53540039 89.67822266 C44.06750991 84.14064761 49.60324618 78.60671767 55.14083105 73.0746184 C59.90633056 68.31365057 64.6698867 63.55074491 69.43181032 58.78620046 C72.27161681 55.9448347 75.11209547 53.10414975 77.95433235 50.26521492 C80.61850428 47.60392332 83.28023399 44.94021336 85.94006729 42.27458572 C86.91760454 41.29572282 87.89600006 40.3177162 88.87529945 39.34061623 C90.20795459 38.0106795 91.53724881 36.6773775 92.86634827 35.34388733 C93.61199571 34.59786286 94.35764315 33.8518384 95.12588596 33.08320713 C97.52939251 30.50216973 97.80897153 29.47633989 98.14208984 25.87866211 C98.14708023 22.25198656 98.14708023 22.25198656 96.07958984 19.87866211 C90.36661812 15.75262697 86.57062915 17.931307 81.3945961 22.31671906 Z M-33.77197266 19.09350586 C-35.78916048 19.18111223 -37.80636258 19.26839052 -39.82357788 19.35536194 C-44.01710163 19.53698663 -48.21049752 19.72124539 -52.40380859 19.90771484 C-57.72955583 20.14451204 -63.05549465 20.37659322 -68.38152504 20.60692501 C-73.5325818 20.82992547 -78.6835285 21.05542217 -83.83447266 21.28100586 C-84.79016773 21.32263288 -85.74586281 21.36425991 -86.73051834 21.40714836 C-91.21908577 21.60335886 -95.70710972 21.8059426 -100.19464111 22.02462769 C-103.48410857 22.18388881 -106.77164825 22.30438445 -110.06365967 22.39602661 C-111.58541616 22.45196162 -113.10716544 22.50809325 -114.62890625 22.56445312 C-115.94458588 22.60208267 -117.2602655 22.63971222 -118.61581421 22.67848206 C-127.04151564 24.0418706 -132.57473052 31.37851053 -138.33821106 37.17422485 C-139.36932763 38.20375217 -140.40088169 39.23284148 -141.43283385 40.26153123 C-144.26084693 43.08314207 -147.08259887 45.91094218 -149.90334928 48.73981094 C-152.94876579 51.79181317 -155.99995071 54.83803907 -159.05041504 57.88499451 C-165.02183444 63.85137533 -170.98790396 69.82307831 -176.95217464 75.79660441 C-183.89444423 82.7492597 -190.84193963 89.69668318 -197.78964683 96.64390402 C-210.18134595 109.03510265 -222.56820883 121.43112463 -234.95239258 133.82983398 C-246.9780597 145.86959894 -259.00723382 157.90584554 -271.0402832 169.93823242 C-271.78190336 170.67981262 -272.52352351 171.42139282 -273.28761701 172.18544514 C-274.02793873 172.92572651 -274.76826045 173.66600789 -275.53101617 174.42872202 C-289.22194907 188.11896579 -302.90959305 201.81249366 -316.59570137 215.50756044 C-321.44114174 220.35602133 -326.28756217 225.20350128 -331.13428688 230.05067825 C-337.03499689 235.95206912 -342.9338197 241.85533903 -348.83026598 247.76099016 C-351.84075762 250.77611038 -354.85204283 253.79042659 -357.86547661 256.80260658 C-360.62026007 259.55629939 -363.3727431 262.31226943 -366.12335273 265.07013123 C-367.12231227 266.0709121 -368.12212639 267.0708408 -369.12284825 268.06985946 C-370.4759904 269.42095227 -371.82579493 270.77538535 -373.17539692 272.13001442 C-374.30455303 273.26022717 -374.30455303 273.26022717 -375.45652038 274.4132725 C-377.69524863 276.81723818 -378.1347045 278.05590146 -378.72586918 281.33014774 C-377.88831945 287.24622483 -374.44449738 289.94883926 -370.2830658 294.02989197 C-369.43454231 294.88933538 -368.58601883 295.7487788 -367.71178252 296.63426596 C-365.35472436 299.01442232 -362.98292748 301.37789846 -360.60353863 303.73560631 C-358.04068724 306.28262941 -355.49805117 308.8496973 -352.95275879 311.41424561 C-347.96404661 316.43410106 -342.95657272 321.43482755 -337.9421395 326.42897641 C-333.86754559 330.48776817 -329.79982756 334.55333281 -325.73694038 338.62384224 C-325.15891095 339.20294431 -324.58088151 339.78204638 -323.98533602 340.378697 C-322.81114746 341.55512361 -321.63697464 342.73156593 -320.46281738 343.90802378 C-309.44925744 354.94154947 -298.41433482 365.95350882 -287.37200619 376.95823241 C-277.89555047 386.40341332 -268.43759847 395.86679735 -258.99291992 405.34375 C-248.02783414 416.34628775 -237.05149283 427.33739141 -226.05691725 438.31046683 C-224.88479358 439.48036062 -223.71268454 440.65026907 -222.54059029 441.82019234 C-221.6755192 442.68364354 -221.6755192 442.68364354 -220.79297192 443.56453819 C-216.72765412 447.62380941 -212.67052116 451.6911523 -208.61646843 455.76167107 C-203.67635681 460.72140542 -198.72398734 465.66849337 -193.75543343 470.59974086 C-191.22015416 473.11660973 -188.69081988 475.63877555 -186.17630959 478.17640877 C-183.451866 480.92552535 -180.70089848 483.6470544 -177.94664001 486.36631775 C-177.15382171 487.1747511 -176.36100341 487.98318446 -175.54416031 488.8161158 C-172.26231919 492.01721548 -170.10643898 494.00822518 -165.62189579 495.18412113 C-160.54798419 493.81628498 -157.81924397 490.92711282 -154.17041016 487.25366211 C-153.4031839 486.50901723 -152.63595765 485.76437234 -151.84548211 484.99716246 C-149.18214002 482.39847413 -146.54970136 479.77105036 -143.92068481 477.13764954 C-142.90483793 476.12367414 -141.88877595 475.1099142 -140.87251937 474.09634942 C-138.09882779 471.32873963 -135.32823122 468.55804999 -132.5581708 465.78680646 C-129.563431 462.79186177 -126.56582717 459.79978587 -123.56861877 456.80731201 C-117.70604526 450.95302377 -111.84623263 445.09597968 -105.98752113 439.23782674 C-101.22728512 434.47806654 -96.46625887 429.71909823 -91.70467758 424.96068382 C-78.20209192 411.46689594 -64.70159587 397.97102241 -51.20378377 384.47245953 C-50.47701852 383.74565433 -49.75025328 383.01884913 -49.00146484 382.27001953 C-48.27381286 381.54232666 -47.54616087 380.8146338 -46.79645883 380.06488963 C-34.98481862 368.25284235 -23.16818908 356.44580029 -11.34930672 344.64099977 C0.78880302 332.51723829 12.9231962 320.38976801 25.05370152 308.25839776 C31.86332551 301.44844145 38.67448875 294.6400411 45.48965073 287.8356266 C51.28699504 282.04736649 57.08089158 276.25568289 62.87029152 270.45947639 C65.82496297 267.50153028 68.78124189 264.54523829 71.74186897 261.59325218 C74.45004579 258.89289871 77.15359554 256.18800214 79.85347928 253.47935774 C80.83267817 252.49861473 81.81358185 251.51957037 82.79632162 250.54237548 C84.12867607 249.21704408 85.45431677 247.88497345 86.77958488 246.55255604 C87.51874071 245.81361758 88.25789654 245.07467912 89.01945102 244.31334859 C92.01251163 240.90766147 93.06121728 238.16957168 93.25991821 233.67977905 C93.30473831 232.76632217 93.34955841 231.8528653 93.39573669 230.91172791 C93.43529984 229.91645584 93.47486298 228.92118378 93.515625 227.89575195 C93.56468491 226.84143478 93.61374481 225.78711761 93.66429138 224.70085144 C93.82459846 221.20577017 93.97181397 217.71027067 94.11865234 214.21459961 C94.22721773 211.77476021 94.33647078 209.33495132 94.44638062 206.89517212 C94.67541066 201.76912808 94.8983823 196.64286871 95.11669922 191.51635742 C95.39472211 184.99135308 95.68399121 178.46691303 95.97745705 171.9425869 C96.20384939 166.89450406 96.42591289 161.84623824 96.64655685 156.79790115 C96.75171541 154.39565759 96.85775521 151.99345241 96.96474075 149.59128952 C97.29407034 142.14661797 97.59370763 134.70191769 97.82958984 127.25366211 C97.87360648 125.87419781 97.87360648 125.87419781 97.91851234 124.46686554 C97.98935733 121.94991192 98.03693779 119.43391827 98.07348633 116.91625977 C98.09375948 116.19459814 98.11403263 115.47293652 98.13492012 114.72940636 C98.15953129 110.53622065 97.63043562 108.01159494 94.95068359 104.75366211 C93.60365436 103.55630279 92.22723308 102.39153314 90.82958984 101.25366211 C89.20416242 99.61982324 87.59156621 97.97315217 85.98974609 96.31616211 C84.29310438 94.62607113 82.59385021 92.93859899 80.89208984 91.25366211 C79.58014648 89.94848633 79.58014648 89.94848633 78.24169922 88.61694336 C76.10661535 86.49352661 73.96921779 84.37249833 71.82958984 82.25366211 C65.28465512 87.83504236 58.80953199 93.46577996 52.54614258 99.36303711 C51.27496289 100.54179997 49.98554508 101.70118939 48.67895508 102.84057617 C41.25282205 108.87441687 41.25282205 108.87441687 37.6696167 117.26620483 C38.08450277 120.87415766 39.18879944 124.13696611 40.45336914 127.52709961 C42.25399122 132.40286604 42.44733458 136.67686051 42.32958984 141.81616211 C42.31750488 142.70037842 42.30541992 143.58459473 42.29296875 144.49560547 C41.72662902 163.44395995 33.79979028 179.52381036 20.33349609 192.69506836 C5.32792197 205.87232588 -13.14865389 210.56751221 -32.81445312 209.46069336 C-50.4846935 207.90790954 -66.7341052 199.1557962 -78.29541016 185.75366211 C-90.91099717 169.09494579 -95.5928629 149.80871017 -92.89355469 129.13305664 C-89.82574958 111.58347082 -79.65905859 95.7151644 -65.16674805 85.47583008 C-49.24493455 74.90283775 -30.01289382 71.83433727 -11.26416016 74.89038086 C-7.85542681 75.75522038 -4.53447919 76.73673432 -1.24578857 77.98301697 C0.87980886 78.48905973 0.87980886 78.48905973 2.56341553 77.12110901 C3.42945404 76.23841591 3.42945404 76.23841591 4.31298828 75.33789062 C5.30356232 74.34675011 5.30356232 74.34675011 6.31414795 73.33558655 C7.01533752 72.60859055 7.7165271 71.88159454 8.43896484 71.13256836 C9.16577454 70.39868393 9.89258423 69.6647995 10.64141846 68.90867615 C12.96610024 66.55594756 15.27283004 64.1864525 17.57958984 61.81616211 C19.15005443 60.22062832 20.72165519 58.626212 22.29443359 57.03295898 C26.15277591 53.11941065 29.996508 49.19194617 33.82958984 45.25366211 C30.39762361 41.18183931 26.92309695 37.2200056 23.15771484 33.44897461 C22.32884766 32.61881836 21.49998047 31.78866211 20.64599609 30.93334961 C19.79908203 30.09030273 18.95216797 29.24725586 18.07958984 28.37866211 C17.21720703 27.51241211 16.35482422 26.64616211 15.46630859 25.75366211 C14.64259766 24.93124023 13.81888672 24.10881836 12.97021484 23.26147461 C12.22288086 22.51526855 11.47554688 21.7690625 10.70556641 21.00024414 C7.00119109 17.55137624 3.35990911 18.10756963 -1.4453125 18.13867188 C-2.29117605 18.14181428 -3.1370396 18.14495668 -4.00853539 18.14819431 C-13.93927191 18.21835592 -23.8523113 18.6484371 -33.77197266 19.09350586 Z M-63.54931641 107.26147461 C-73.54068363 119.54002228 -77.54361387 132.55909048 -76.39355469 148.22729492 C-74.90866199 161.71155028 -67.52171337 173.69031127 -57.17041016 182.25366211 C-45.25805073 191.07535784 -31.7023648 193.85392796 -17.17041016 192.25366211 C-3.80409231 189.79297832 7.56663524 182.64415968 15.66943359 171.78881836 C23.98507161 159.53511921 26.11253219 147.79864796 24.82958984 133.25366211 C24.16958984 132.26366211 23.50958984 131.27366211 22.82958984 130.25366211 C22.14445312 130.95450928 21.45931641 131.65535645 20.75341797 132.37744141 C18.18187243 135.00375219 15.60002937 137.61974053 13.01513672 140.23291016 C11.90297657 141.36005161 10.79353622 142.48988406 9.68701172 143.62255859 C-6.54612 160.22928676 -6.54612 160.22928676 -19.29541016 160.62866211 C-26.63956584 160.56264723 -32.2340838 158.70624716 -37.79150391 153.83178711 C-43.75904651 147.24447005 -44.71576022 140.97365702 -44.43212891 132.38647461 C-43.57012683 122.06818104 -37.18002103 116.33214471 -30.17041016 109.25366211 C-29.48462891 108.55950195 -28.79884766 107.8653418 -28.09228516 107.15014648 C-23.47820867 102.49107457 -18.83553845 97.86158736 -14.17041016 93.25366211 C-16.82318418 90.60088809 -18.87689659 90.94056602 -22.49267578 90.87304688 C-38.53614976 90.90833761 -52.28826984 95.10926609 -63.54931641 107.26147461 Z " fill="#000000" transform="translate(396.17041015625,-0.253662109375)"/>
<path d="M0 0 C1.18529297 -0.05994141 1.18529297 -0.05994141 2.39453125 -0.12109375 C9.66466984 1.33293397 14.60896679 6.42356005 18.9375 12.125 C19.4413623 12.77436523 19.94522461 13.42373047 20.46435547 14.09277344 C28.80574254 25.00253179 36.30225845 36.37068003 42.75 48.5 C43.35835693 49.64130371 43.35835693 49.64130371 43.97900391 50.80566406 C50.08662644 62.64744941 53.20710339 75.18479621 50.1875 88.4375 C50.91195312 88.27894531 51.63640625 88.12039062 52.3828125 87.95703125 C72.93309739 84.15036288 92.67324223 95.74348046 109.00341797 106.93652344 C111.77507678 108.89741623 114.50591495 110.90654741 117.21630859 112.95117188 C119.18967812 114.43914236 121.18170979 115.89931578 123.17578125 117.359375 C137.33961526 127.89164164 137.33961526 127.89164164 138.5703125 135.94140625 C138.8494099 142.18388479 137.56622789 146.73691463 133.33984375 151.53515625 C116.77422609 166.23093347 97.23673963 180.1218085 76.1875 187.4375 C74.95 187.870625 73.7125 188.30375 72.4375 188.75 C58.68490478 191.68883259 44.11072449 189.36955036 32.1875 182 C30.50546087 180.83437639 28.83653053 179.64937143 27.1875 178.4375 C26.115 177.674375 25.0425 176.91125 23.9375 176.125 C15.42330281 167.80430729 9.9979114 156.93463754 7.1875 145.4375 C6.7028125 145.93378906 6.218125 146.43007813 5.71875 146.94140625 C1.54779975 151.1685039 -2.68703675 155.10732527 -7.34375 158.796875 C-9.25716817 160.56720104 -9.25716817 160.56720104 -8.8125 164.4375 C-7.46303335 166.3530603 -7.46303335 166.3530603 -5.53955078 168.1328125 C-4.82525909 168.84034668 -4.11096741 169.54788086 -3.37503052 170.27685547 C-2.2032576 171.40824951 -2.2032576 171.40824951 -1.0078125 172.5625 C0.18365891 173.7383667 0.18365891 173.7383667 1.39920044 174.93798828 C3.94436587 177.44746376 6.50245118 179.94321655 9.0625 182.4375 C11.61367758 184.93343649 14.16189775 187.43221368 16.70437622 189.93701172 C18.28816083 191.49629728 19.87726152 193.05020529 21.47213745 194.59814453 C22.19273346 195.30567871 22.91332947 196.01321289 23.65576172 196.7421875 C24.29085663 197.36077637 24.92595154 197.97936523 25.58029175 198.61669922 C29.00244625 202.49364645 29.50290477 205.69922902 29.5625 210.8125 C29.59085938 211.91335938 29.61921875 213.01421875 29.6484375 214.1484375 C28.66297323 221.18030968 23.14378444 225.81935932 18.3125 230.625 C17.71308594 231.24052734 17.11367188 231.85605469 16.49609375 232.49023438 C12.38797876 236.60280503 8.58118137 240.00882446 2.58984375 240.765625 C1.77644531 240.73984375 0.96304688 240.7140625 0.125 240.6875 C-1.09896484 240.66429687 -1.09896484 240.66429687 -2.34765625 240.640625 C-4.8125 240.4375 -4.8125 240.4375 -7.3046875 239.70703125 C-10.88403871 239.32233463 -12.10096261 240.66162778 -14.875 242.875 C-18.61958485 245.75927518 -22.36049712 248.53097848 -26.3125 251.125 C-31.71126291 254.68663498 -37.0458794 258.33509194 -42.375 262 C-63.62811035 276.59203117 -63.62811035 276.59203117 -70.9375 276.8125 C-72.03320312 276.86148437 -73.12890625 276.91046875 -74.2578125 276.9609375 C-83.90885629 275.53979479 -90.64377506 267.04845889 -97.20703125 260.44140625 C-98.28656594 259.36389649 -99.36654529 258.28683205 -100.44694519 257.21018982 C-102.69829358 254.96324126 -104.94418502 252.7110156 -107.1862793 250.45483398 C-110.05196756 247.572014 -112.93097279 244.70293007 -115.81418324 241.83764744 C-118.04245438 239.62024235 -120.26349978 237.39571013 -122.48245811 235.16898918 C-123.5411471 234.10830814 -124.60204374 233.04982563 -125.6652317 231.99365425 C-127.15116769 230.51538395 -128.62707318 229.02775331 -130.10083008 227.53735352 C-131.36036247 226.27424095 -131.36036247 226.27424095 -132.64533997 224.98561096 C-137.57288639 219.19188329 -138.49893502 214.12686302 -138.265625 206.7109375 C-137.50829499 201.23988103 -135.01382013 197.84368062 -131.8125 193.4375 C-130.86275555 192.04859316 -129.91787272 190.65635555 -128.9765625 189.26171875 C-126.20348745 185.16112147 -123.3983517 181.08359974 -120.58544922 177.01025391 C-118.80150998 174.42155221 -117.02617968 171.82716885 -115.25390625 169.23046875 C-114.3887439 167.9628772 -114.3887439 167.9628772 -113.50610352 166.66967773 C-112.4086884 165.06128514 -111.31150573 163.45273391 -110.21459961 161.84399414 C-109.71065674 161.10656982 -109.20671387 160.36914551 -108.6875 159.609375 C-107.96856567 158.55592896 -107.96856567 158.55592896 -107.23510742 157.48120117 C-105.83516657 155.47006252 -104.38435119 153.5039833 -102.92578125 151.53515625 C-100.5440726 148.74100485 -100.5440726 148.74100485 -101 146.125 C-101.268125 145.238125 -101.53625 144.35125 -101.8125 143.4375 C-101.97315412 141.81710932 -102.07099748 140.18993953 -102.125 138.5625 C-102.16238281 137.76070312 -102.19976562 136.95890625 -102.23828125 136.1328125 C-101.05897175 128.66745881 -95.48577969 123.67271465 -90.3125 118.625 C-89.64863281 117.95791016 -88.98476562 117.29082031 -88.30078125 116.60351562 C-83.12798094 111.48750254 -79.93067671 109.14983306 -72.4375 109.0625 C-71.33664063 109.03414063 -70.23578125 109.00578125 -69.1015625 108.9765625 C-61.62872494 110.02382477 -56.63549423 116.34801894 -51.5703125 121.484375 C-50.80194061 122.25557678 -50.03356873 123.02677856 -49.24191284 123.8213501 C-46.80235106 126.27205682 -44.36985761 128.72964497 -41.9375 131.1875 C-40.27910843 132.85592869 -38.62025914 134.52390255 -36.9609375 136.19140625 C-32.90614317 140.2681855 -28.85712098 144.35062879 -24.8125 148.4375 C-23.70911782 147.5011169 -22.60708971 146.56313812 -21.50561523 145.62451172 C-20.89177475 145.10235077 -20.27793427 144.58018982 -19.64549255 144.04220581 C-16.93297147 141.66751076 -14.40026807 139.13317399 -11.875 136.5625 C-11.38193359 136.06492187 -10.88886719 135.56734375 -10.38085938 135.0546875 C-9.18904008 133.85129715 -8.00041322 132.64474635 -6.8125 131.4375 C-7.92044922 131.10878906 -7.92044922 131.10878906 -9.05078125 130.7734375 C-25.95879577 125.48834021 -36.80124967 117.58406971 -45.8125 102.4375 C-52.36894873 88.12109003 -52.7522672 73.09358807 -47.42578125 58.38671875 C-40.62630796 41.10880951 -24.51561879 9.71791527 -7.390625 1.23828125 C-4.81773993 0.43912756 -2.68817324 0.07382705 0 0 Z M-0.8125 19.4375 C-2.12680801 20.73472297 -2.12680801 20.73472297 -3.4296875 22.48828125 C-3.94853516 23.15778809 -4.46738281 23.82729492 -5.00195312 24.51708984 C-5.55818359 25.2539502 -6.11441406 25.99081055 -6.6875 26.75 C-7.26177734 27.50748535 -7.83605469 28.2649707 -8.42773438 29.04541016 C-17.0795181 40.63245129 -25.57529526 52.88530195 -30.8125 66.4375 C-31.245625 67.406875 -31.67875 68.37625 -32.125 69.375 C-34.42304474 79.61174474 -32.73432139 88.99595916 -27.3046875 97.9140625 C-21.56739706 105.89289897 -14.29325749 110.84132202 -4.70703125 113.09375 C4.03082057 114.1314436 12.15610538 111.57986323 19.1875 106.4375 C26.97162209 100.232765 31.59727394 92.30011415 33.1875 82.4375 C33.86864046 72.39067817 30.32256961 63.91836422 25.625 55.1875 C24.96963257 53.95761353 24.96963257 53.95761353 24.30102539 52.70288086 C20.51807062 45.75673921 16.21479886 39.35745547 11.42529297 33.07373047 C10.13575689 31.36910112 8.88001009 29.64315259 7.62890625 27.91015625 C4.51330121 23.59255184 4.51330121 23.59255184 1.1875 19.4375 C0.5275 19.4375 -0.1325 19.4375 -0.8125 19.4375 Z M31.7265625 120.30078125 C26.98910368 126.87791317 24.54517237 134.11962471 25.5234375 142.21875 C27.34928086 151.41910356 31.53578492 158.72680619 38.91015625 164.609375 C47.64285027 170.42316304 55.71738719 172.63878106 66.1875 171.4375 C82.57330849 167.09889307 96.72666482 156.31510868 110.1875 146.4375 C111.71117187 145.32181641 111.71117187 145.32181641 113.265625 144.18359375 C116.3213904 141.92242267 116.3213904 141.92242267 119.1875 139.4375 C119.1875 138.7775 119.1875 138.1175 119.1875 137.4375 C116.91480815 135.53186471 114.63637566 133.75429071 112.25 132 C111.52997803 131.46793945 110.80995605 130.93587891 110.06811523 130.38769531 C86.24363309 112.9660911 55.76819924 91.48375091 31.7265625 120.30078125 Z M-75.09765625 129.625 C-76.01417969 130.553125 -76.93070313 131.48125 -77.875 132.4375 C-79.25365234 133.8296875 -79.25365234 133.8296875 -80.66015625 135.25 C-81.37042969 135.971875 -82.08070313 136.69375 -82.8125 137.4375 C-81.44665283 140.49525179 -79.90161635 142.59631191 -77.53488159 144.95562744 C-76.85899994 145.63425842 -76.18311829 146.3128894 -75.48675537 147.01208496 C-74.74588684 147.74576294 -74.00501831 148.47944092 -73.24169922 149.23535156 C-72.46112152 150.01622131 -71.68054382 150.79709106 -70.87631226 151.60162354 C-68.29464955 154.18189273 -65.70597442 156.75500522 -63.1171875 159.328125 C-61.32599081 161.11559165 -59.53523512 162.90350032 -57.74490356 164.6918335 C-53.51289428 168.91698631 -49.27646242 173.1376546 -45.03785431 177.35618377 C-40.21170285 182.15996886 -35.39123937 186.96944442 -30.57124305 191.77940416 C-20.65797392 201.67177667 -10.73759034 211.55698887 -0.8125 221.4375 C2.59809403 219.83214713 4.80542484 218.03231099 7.4375 215.3125 C8.49710938 214.22582031 8.49710938 214.22582031 9.578125 213.1171875 C10.10921875 212.56289063 10.6403125 212.00859375 11.1875 211.4375 C6.83263964 206.23142314 2.25873141 201.36537982 -2.54614258 196.57446289 C-3.29643738 195.82241577 -4.04673218 195.07036865 -4.81976318 194.29553223 C-7.27969052 191.83123286 -9.74322231 189.37057433 -12.20703125 186.91015625 C-13.92256549 185.19394807 -15.63795128 183.47759149 -17.35319519 181.76109314 C-20.93655864 178.17625939 -24.52171499 174.59323104 -28.1081543 171.01147461 C-32.71642523 166.40892646 -37.32015789 161.80186903 -41.92258167 157.19347477 C-45.45764658 153.65480823 -48.99507498 150.11851214 -52.53323936 146.58294487 C-54.23293252 144.88392075 -55.93187778 143.1841481 -57.63007545 141.48362923 C-59.9929241 139.11825782 -62.35892523 136.75608699 -64.72583008 134.39477539 C-65.4328154 133.68576584 -66.13980072 132.97675629 -66.86820984 132.2462616 C-67.50880341 131.60848785 -68.14939697 130.97071411 -68.80940247 130.31361389 C-69.36851224 129.75488114 -69.92762201 129.1961484 -70.50367451 128.62048435 C-72.77922754 126.56372151 -72.70439663 127.33401643 -75.09765625 129.625 Z M-87.8125 161.4375 C-89.18462902 163.20139472 -90.4657463 165.03623248 -91.70703125 166.89453125 C-92.09128769 167.46515793 -92.47554413 168.03578461 -92.8714447 168.623703 C-94.12933406 170.49473783 -95.37744116 172.37206435 -96.625 174.25 C-97.91260976 176.17621033 -99.20195727 178.101248 -100.49160767 180.02609253 C-101.35551748 181.31568994 -102.21861307 182.60583318 -103.0809021 183.89651489 C-105.66931474 187.76329173 -108.30533662 191.58997309 -110.99609375 195.38671875 C-111.60541748 196.25127686 -112.21474121 197.11583496 -112.8425293 198.0065918 C-113.96591101 199.59431525 -115.0985251 201.17555754 -116.24145508 202.74926758 C-116.98045044 203.80150513 -116.98045044 203.80150513 -117.734375 204.875 C-118.16331055 205.47183594 -118.59224609 206.06867188 -119.03417969 206.68359375 C-120.10010482 209.0856032 -119.73002416 209.98120869 -118.8125 212.4375 C-116.94565118 214.77376517 -116.94565118 214.77376517 -114.53979492 217.13012695 C-113.63182663 218.05400711 -112.72385834 218.97788727 -111.78837585 219.92976379 C-110.79043875 220.92896782 -109.79195642 221.92762756 -108.79296875 222.92578125 C-107.77235304 223.95349735 -106.75203755 224.98151166 -105.73200989 226.0098114 C-103.59432796 228.16093294 -101.45080593 230.30603028 -99.3034668 232.44750977 C-96.54905579 235.19601243 -93.8133649 237.96235668 -91.08217907 240.73391438 C-88.98129534 242.86060627 -86.86909083 244.97576354 -84.75344276 247.08775902 C-83.73956387 248.10333432 -82.72967824 249.12291223 -81.72386742 250.14647865 C-80.31896488 251.57343932 -78.89656244 252.98310715 -77.47338867 254.3918457 C-76.66810226 255.19918655 -75.86281586 256.0065274 -75.03312683 256.83833313 C-72.97344888 258.68565346 -72.97344888 258.68565346 -70.64823914 258.26289368 C-68.47174777 257.28428938 -66.58035894 256.14207178 -64.6015625 254.8046875 C-63.77897949 254.25264648 -62.95639648 253.70060547 -62.10888672 253.13183594 C-61.2273291 252.53145508 -60.34577148 251.93107422 -59.4375 251.3125 C-58.52371582 250.69665039 -57.60993164 250.08080078 -56.66845703 249.44628906 C-53.71169476 247.45031113 -50.76143475 245.44502207 -47.8125 243.4375 C-46.79349609 242.74495117 -45.77449219 242.05240234 -44.72460938 241.33886719 C-39.08996706 237.50809548 -33.4611899 233.66887915 -27.83935547 229.81933594 C-26.17073165 228.68172924 -24.49284086 227.55772724 -22.8125 226.4375 C-24.45079037 222.27216632 -27.49278565 219.47591085 -30.60742188 216.38378906 C-31.19946915 215.78823715 -31.79151642 215.19268524 -32.40150452 214.5790863 C-34.35642353 212.61537666 -36.31855322 210.65905866 -38.28125 208.703125 C-39.64152839 207.34149956 -41.00150976 205.97957732 -42.36120605 204.61737061 C-45.20940429 201.76622502 -48.06118616 198.91872581 -50.91552734 196.07373047 C-54.58115042 192.41952329 -58.23769394 188.75638286 -61.89162445 185.09048843 C-64.69661412 182.27828819 -67.50632951 179.47084864 -70.31752014 176.66484833 C-71.66824854 175.31545753 -73.01748338 173.96457005 -74.36521912 172.61219025 C-76.24455448 170.72780052 -78.13013822 168.84989997 -80.01757812 166.97363281 C-80.57764053 166.40952194 -81.13770294 165.84541107 -81.71473694 165.26420593 C-84.28334502 162.35432214 -84.28334502 162.35432214 -87.8125 161.4375 Z " fill="#000000" transform="translate(242.8125,130.5625)"/>
<path d="M0 0 C2.69990662 1.79993774 4.5418865 3.083773 6 6 C6.5 8.625 6.5 8.625 6 12 C3.96152494 14.9575563 1.52769364 17.45717047 -1 20 C-1.59425781 20.6084375 -2.18851563 21.216875 -2.80078125 21.84375 C-4.18509367 23.24458167 -5.59031834 24.62470082 -7 26 C-5.44974544 29.8623485 -2.99389261 31.98825244 0.0625 34.75 C5.69283954 40.29874042 5.69283954 40.29874042 6.4375 44.25 C5.8424895 49.35008999 4.98685827 50.74542182 1 54 C-3.05749016 54.86471102 -5.24713497 55.06084456 -8.80078125 52.91015625 C-11.00554061 51.05475919 -12.98421608 49.06122832 -15 47 C-16.19222911 45.82761287 -17.38640662 44.65720536 -18.58203125 43.48828125 C-21.10520352 41.0061466 -23.62382866 38.51993976 -26.12109375 36.01171875 C-26.6514624 35.48022217 -27.18183105 34.94872559 -27.72827148 34.40112305 C-30.17047893 31.71042838 -30.64582558 28.94217118 -30.59375 25.3359375 C-29.27636498 20.15306748 -24.70244325 16.63145245 -21 13 C-20.12601563 12.09121094 -19.25203125 11.18242187 -18.3515625 10.24609375 C-7.3758967 -1.0756516 -7.3758967 -1.0756516 0 0 Z " fill="#000000" transform="translate(71,254)"/>
</svg>
