<?xml version="1.0" encoding="UTF-8"?>
<svg version="1.1" xmlns="http://www.w3.org/2000/svg" width="512" height="512">
<path d="M0 0 C18.44530111 14.57023785 31.02623057 35.67162088 34.53808594 58.99267578 C37.37342785 84.63882919 34.52802124 111.19887948 19.07421875 132.55859375 C17.67575881 134.69752275 17.67575881 134.69752275 17.921875 136.86328125 C19.12363208 139.4031292 20.70941172 141.06182475 22.6640625 143.078125 C29.62291197 150.7092068 32.77171268 158.61502443 32.88671875 169.00390625 C32.33092734 180.53996691 28.83744173 189.42507298 20.8515625 197.828125 C18.28396999 200.11228197 15.64321472 202.25526256 12.94140625 204.37890625 C9.49772657 207.10859925 6.17358727 209.95295666 2.8515625 212.828125 C-2.13682048 217.12901296 -7.1906896 221.333012 -12.3046875 225.484375 C-15.62530236 228.22114549 -18.88890532 231.0191545 -22.1484375 233.828125 C-27.13784517 238.12785213 -32.19064906 242.33297909 -37.3046875 246.484375 C-40.62530236 249.22114549 -43.88890532 252.0191545 -47.1484375 254.828125 C-52.13784517 259.12785213 -57.19064906 263.33297909 -62.3046875 267.484375 C-65.62531447 270.22115547 -68.88856009 273.01954072 -72.1484375 275.828125 C-102.14749736 301.6235727 -102.14749736 301.6235727 -121.4609375 301.17578125 C-130.32426505 300.34014973 -137.64392612 296.85408532 -144.1484375 290.828125 C-145.16381805 289.45458529 -146.17275829 288.0762652 -147.17576599 286.69366455 C-150.06772879 283.37242465 -151.94919501 282.24088635 -156.33778381 281.78533936 C-158.37813758 281.72596443 -160.42005559 281.71017098 -162.46118164 281.72949219 C-164.14073441 281.6988266 -164.14073441 281.6988266 -165.85421753 281.6675415 C-169.54821863 281.61203991 -173.23922573 281.61577767 -176.93359375 281.625 C-179.51323038 281.6094413 -182.09285682 281.59210037 -184.67247009 281.57305908 C-190.08044971 281.54322419 -195.48727818 281.5438016 -200.89526367 281.56542969 C-207.11371748 281.58952069 -213.32853533 281.54052492 -219.54636866 281.45514941 C-225.5604804 281.37565809 -231.57271665 281.36405245 -237.58743095 281.3780899 C-240.12979075 281.37604744 -242.67221174 281.35529112 -245.21425056 281.31484222 C-262.10609855 280.75344808 -262.10609855 280.75344808 -276.41967773 288.55175781 C-277.92896488 290.07294117 -279.3561884 291.62644262 -280.75175285 293.25229645 C-283.14106774 295.94807364 -285.84717625 298.29836767 -288.5234375 300.703125 C-289.48765625 301.59515625 -290.451875 302.4871875 -291.4453125 303.40625 C-298.3905426 309.628855 -302.86583712 313.2337809 -312.3203125 313.09765625 C-316.74755051 312.67572335 -318.67340001 311.6648903 -322.1484375 308.828125 C-326.75295336 301.70597438 -327.06822181 294.62138709 -327.59765625 286.3203125 C-327.70016953 284.9078613 -327.80418695 283.49551856 -327.90962219 282.08328247 C-328.1822578 278.37756945 -328.43463369 274.67075123 -328.68261719 270.96331787 C-328.93569898 267.23247711 -329.20788425 263.50303894 -329.47851562 259.7734375 C-329.96541549 253.02620426 -330.43367431 246.27789483 -330.89335632 239.52874756 C-331.23117346 234.62782262 -331.5860386 229.72818157 -331.94335938 224.8286438 C-332.21685697 220.82707288 -332.40276396 216.83822078 -332.4609375 212.828125 C-332.48994141 212.13074219 -332.51894531 211.43335938 -332.54882812 210.71484375 C-332.61169954 205.57873285 -331.36011413 202.78140696 -328.1484375 198.828125 C-324.29128823 195.50918261 -320.70692307 193.86778332 -315.66796875 193.55859375 C-305.55374653 194.64058031 -295.716854 203.25572627 -287.54296875 208.828125 C-286.81416504 209.31410156 -286.08536133 209.80007813 -285.33447266 210.30078125 C-283.1484375 211.828125 -283.1484375 211.828125 -281.05224609 213.57421875 C-276.76661958 216.95817367 -273.84208184 218.23817004 -268.3359375 217.87109375 C-265.93555532 217.55637542 -263.53993332 217.20446258 -261.1484375 216.828125 C-259.6112589 216.62143952 -258.07345151 216.41939483 -256.53515625 216.22119141 C-250.509674 215.43789358 -244.48924031 214.61792611 -238.47412109 213.75854492 C-235.88786898 213.39101488 -233.29980775 213.03994557 -230.7109375 212.69140625 C-229.92444824 212.57485184 -229.13795898 212.45829742 -228.32763672 212.33821106 C-224.01006806 211.77092959 -220.98830012 211.66064699 -217.1484375 213.828125 C-214.14037232 216.67359206 -213.22825923 218.18955113 -212.7109375 222.328125 C-213.19625272 226.21064674 -213.50238851 227.9415261 -216.1484375 230.828125 C-224.86302709 234.51544293 -234.21685819 235.29618642 -243.5234375 236.515625 C-245.19150844 236.74208711 -246.85947836 236.96929461 -248.52734375 237.19726562 C-250.11709782 237.41212293 -251.70693872 237.62633897 -253.296875 237.83984375 C-254.04061371 237.93980148 -254.78435242 238.03975922 -255.55062866 238.14274597 C-258.44228699 238.52087554 -261.2284404 238.828125 -264.1484375 238.828125 C-264.04015625 239.93607422 -264.04015625 239.93607422 -263.9296875 241.06640625 C-263.836875 242.08089844 -263.7440625 243.09539062 -263.6484375 244.140625 C-263.555625 245.12675781 -263.4628125 246.11289062 -263.3671875 247.12890625 C-263.07727499 252.03153391 -263.10868827 256.91854284 -263.1484375 261.828125 C-262.51421875 261.80306885 -261.88 261.7780127 -261.2265625 261.75219727 C-239.87300172 260.93927252 -218.51380024 260.58697902 -197.1484375 260.265625 C-196.41052979 260.2545232 -195.67262207 260.2434214 -194.91235352 260.23198318 C-185.65777495 260.09314108 -176.4031371 259.95866779 -167.1484375 259.828125 C-167.48053223 259.35765747 -167.81262695 258.88718994 -168.15478516 258.40246582 C-206.1484375 204.578125 -206.1484375 204.578125 -207.64819336 202.45336914 C-208.64887938 201.03579846 -209.64969333 199.61831808 -210.65063477 198.20092773 C-213.14119201 194.67381928 -215.62955342 191.14520283 -218.11328125 187.61328125 C-223.22076099 180.35577015 -228.36912192 173.1325016 -233.5859375 165.953125 C-240.2959364 156.70666568 -246.75552531 147.29579287 -253.1484375 137.828125 C-253.70160645 137.01875488 -254.25477539 136.20938477 -254.82470703 135.37548828 C-255.36595215 134.57739746 -255.90719727 133.77930664 -256.46484375 132.95703125 C-256.9554126 132.23717041 -257.44598145 131.51730957 -257.95141602 130.77563477 C-261.28547007 125.3512519 -260.73667311 118.95557923 -260.1484375 112.828125 C-257.77665816 104.2727781 -251.84510649 99.24102626 -245.1484375 93.828125 C-244.27832031 93.11011719 -243.40820312 92.39210938 -242.51171875 91.65234375 C-240.69934438 90.16275723 -238.88144838 88.67986799 -237.05859375 87.203125 C-233.93413961 84.65323491 -230.84870946 82.06188956 -227.7734375 79.453125 C-227.23114502 78.99325195 -226.68885254 78.53337891 -226.13012695 78.05957031 C-224.46895982 76.64979788 -222.80855781 75.23912996 -221.1484375 73.828125 C-215.03955715 68.63593478 -208.93333109 63.44688919 -202.7109375 58.390625 C-198.46451368 54.93538349 -194.29547456 51.40114666 -190.1484375 47.828125 C-185.13247347 43.50644958 -180.05668642 39.27333459 -174.91796875 35.09765625 C-171.84422248 32.57883173 -168.80489253 30.0225367 -165.7734375 27.453125 C-165.23227295 26.99518555 -164.6911084 26.53724609 -164.13354492 26.06542969 C-161.32779735 23.68791687 -158.53258109 21.29912243 -155.75 18.89453125 C-136.31162827 2.15304006 -136.31162827 2.15304006 -124.5703125 2.52734375 C-115.04366284 3.71049218 -109.33251524 8.83742843 -103.1484375 15.828125 C-102.2203125 14.8690625 -102.2203125 14.8690625 -101.2734375 13.890625 C-72.99225275 -14.15223516 -34.37052931 -23.70969516 0 0 Z M-84.1484375 26.828125 C-85.17705812 28.13950496 -86.18951471 29.46495045 -87.1484375 30.828125 C-85.5727996 34.64283822 -83.17093856 37.04098154 -80.2590332 39.92871094 C-79.76279953 40.42363037 -79.26656586 40.9185498 -78.7552948 41.4284668 C-77.11615361 43.06112642 -75.47015023 44.68668863 -73.82421875 46.3125 C-72.67748374 47.45295826 -71.53126659 48.59393743 -70.38554382 49.7354126 C-67.36588076 52.74177573 -64.340712 55.74253175 -61.31390381 58.74169922 C-56.48646687 63.52604398 -51.66559319 68.31697569 -46.84816551 73.11139679 C-45.17400884 74.77543529 -43.496421 76.43595392 -41.81843567 78.09613037 C-36.93579075 82.94051049 -32.1647364 87.820075 -27.69447327 93.05377197 C-25.11874604 96.00988042 -22.34277977 98.75735591 -19.55859375 101.515625 C-18.96920517 102.10359863 -18.37981659 102.69157227 -17.77256775 103.29736328 C-15.92106132 105.14334861 -14.06607933 106.98579392 -12.2109375 108.828125 C-10.94182377 110.0922135 -9.67294161 111.35653456 -8.40429688 112.62109375 C-5.3216743 115.69279224 -2.23593322 118.76132508 0.8515625 121.828125 C13.23730067 106.64955546 16.66247403 85.94779365 14.8515625 66.828125 C12.89358575 51.29348309 6.34785554 36.49067282 -4.1484375 24.828125 C-4.6434375 24.23 -5.1384375 23.631875 -5.6484375 23.015625 C-14.63693236 12.94851076 -27.39669915 8.07625383 -40.50390625 6.5546875 C-57.76419818 5.7372602 -72.60235156 14.81939102 -84.1484375 26.828125 Z M-132.9609375 27.578125 C-133.93675781 28.39796875 -134.91257812 29.2178125 -135.91796875 30.0625 C-136.99578629 30.98321193 -138.07257148 31.90513344 -139.1484375 32.828125 C-139.71095215 33.30958984 -140.2734668 33.79105469 -140.85302734 34.28710938 C-143.22182157 36.31579965 -145.58901159 38.346313 -147.95214844 40.3815918 C-152.36928563 44.18107845 -156.85704507 47.88416775 -161.37890625 51.55859375 C-166.69285416 55.91318294 -171.91370516 60.37890935 -177.1484375 64.828125 C-183.25731785 70.02031522 -189.36354391 75.20936081 -195.5859375 80.265625 C-199.83236132 83.72086651 -204.00140044 87.25510334 -208.1484375 90.828125 C-212.29547456 94.40114666 -216.46451368 97.93538349 -220.7109375 101.390625 C-224.91034039 104.81398324 -229.10679441 108.23996338 -233.2734375 111.703125 C-233.84263916 112.1679126 -234.41184082 112.6327002 -234.99829102 113.11157227 C-237.6295193 115.31117443 -239.04205808 116.50898674 -240.1484375 119.828125 C-238.7180512 122.41082124 -238.7180512 122.41082124 -236.7109375 125.015625 C-236.05222656 125.91667969 -235.39351563 126.81773437 -234.71484375 127.74609375 C-233.93947266 128.77669922 -233.93947266 128.77669922 -233.1484375 129.828125 C-230.36020513 128.53888519 -228.15847148 127.14192969 -225.86328125 125.10546875 C-225.25597168 124.57163574 -224.64866211 124.03780273 -224.02294922 123.48779297 C-223.38373535 122.91947754 -222.74452148 122.35116211 -222.0859375 121.765625 C-220.73410836 120.5782472 -219.38123787 119.39205395 -218.02734375 118.20703125 C-217.36492676 117.62711426 -216.70250977 117.04719727 -216.02001953 116.44970703 C-212.70658104 113.57886716 -209.29680423 110.8296209 -205.890625 108.0703125 C-202.77843709 105.52558905 -199.71113876 102.93198119 -196.6484375 100.328125 C-192.70197626 96.97360404 -188.73201515 93.65590538 -184.7109375 90.390625 C-179.84714725 86.43304312 -175.08962519 82.36270054 -170.34008789 78.26977539 C-165.950434 74.49478109 -161.48728979 70.82084039 -156.9921875 67.171875 C-153.67157048 64.43510273 -150.40803115 61.6370268 -147.1484375 58.828125 C-142.12556441 54.50124948 -137.04874064 50.25422815 -131.90234375 46.07421875 C-126.94932156 42.0345198 -122.05216899 37.9274049 -117.1484375 33.828125 C-118.45607969 30.95006085 -119.85985347 28.82120204 -122.0859375 26.578125 C-122.58996094 26.05734375 -123.09398437 25.5365625 -123.61328125 25 C-127.43564935 22.08216176 -129.9326907 25.01750852 -132.9609375 27.578125 Z M-108.5234375 53.265625 C-112.85374852 57.01123413 -117.19979729 60.7227345 -121.6484375 64.328125 C-125.8763623 67.76020513 -130.0237164 71.27363671 -134.1484375 74.828125 C-139.16158523 79.14746772 -144.23381265 83.37909777 -149.37109375 87.55078125 C-152.49240017 90.11016472 -155.57297174 92.71402416 -158.6484375 95.328125 C-162.59494231 98.68259627 -166.56485822 102.00034329 -170.5859375 105.265625 C-175.44972775 109.22320688 -180.20724981 113.29354946 -184.95678711 117.38647461 C-189.33873002 121.15483765 -193.79361692 124.82280325 -198.28125 128.46484375 C-202.33560384 131.80664767 -206.31560722 135.23286447 -210.29101562 138.66796875 C-213.52488655 141.45797504 -216.79344311 144.18308261 -220.1484375 146.828125 C-218.33841181 150.86509241 -215.78839995 154.39792461 -213.2734375 158.015625 C-212.7880249 158.7176001 -212.3026123 159.4195752 -211.80249023 160.14282227 C-206.8021057 167.35884061 -201.73573753 174.52818228 -196.66015625 181.69140625 C-195.16309677 183.80740505 -193.67060563 185.92654552 -192.1796875 188.046875 C-187.07441242 195.30373093 -181.92701905 202.52544681 -176.7109375 209.703125 C-172.20751379 215.90350074 -167.82735419 222.17526137 -163.5234375 228.515625 C-159.26746252 234.78509112 -154.92070464 240.96099833 -150.39111328 247.03564453 C-147.71645626 250.63834263 -145.12987832 254.28765294 -142.59765625 257.9921875 C-141.67714478 259.33325562 -141.67714478 259.33325562 -140.73803711 260.70141602 C-139.54441911 262.44630019 -138.35854158 264.19651431 -137.18188477 265.95288086 C-133.05817607 271.96734938 -128.26594195 278.85010175 -120.6484375 280.328125 C-115.09767836 281.19718325 -111.36394369 280.43615369 -106.7265625 277.0703125 C-103.80944339 274.71806905 -100.97672988 272.28639467 -98.1484375 269.828125 C-97.10328507 268.94197475 -96.05638199 268.05788549 -95.0078125 267.17578125 C-91.71255462 264.40354045 -88.42965123 261.61696434 -85.1484375 258.828125 C-79.03955715 253.63593478 -72.93333109 248.44688919 -66.7109375 243.390625 C-61.84714725 239.43304312 -57.08962519 235.36270054 -52.34008789 231.26977539 C-47.950434 227.49478109 -43.48728979 223.82084039 -38.9921875 220.171875 C-35.67157156 217.43510362 -32.40800041 214.63706115 -29.1484375 211.828125 C-24.14022936 207.51303825 -19.07269312 203.28588437 -13.94140625 199.1171875 C-9.61919229 195.57478557 -5.35886339 191.961147 -1.109375 188.33203125 C0.61304694 186.87547127 2.35085746 185.43606693 4.125 184.04296875 C9.35450031 179.90570584 11.45042158 175.97994654 12.2890625 169.390625 C11.35624198 161.79480076 7.18781508 156.5751161 1.80078125 151.421875 C0.93523369 150.56837463 0.93523369 150.56837463 0.05220032 149.69763184 C-1.77617924 147.89796802 -3.61770134 146.11255765 -5.4609375 144.328125 C-7.29078918 142.54116615 -9.11765376 140.75125778 -10.94194031 138.95861816 C-12.07129684 137.85049254 -13.2041659 136.74592927 -14.34138489 135.64587402 C-17.15346302 132.90307504 -19.81429978 130.09560457 -22.37007141 127.1114502 C-26.02398057 122.91647652 -29.87353029 118.96181915 -33.81201172 115.03515625 C-34.5429454 114.30247025 -35.27387909 113.56978424 -36.02696228 112.81489563 C-38.41652644 110.42096955 -40.8096823 108.03067283 -43.203125 105.640625 C-44.8723894 103.97068645 -46.54150537 102.30059951 -48.21047974 100.63037109 C-51.69371072 97.14567126 -55.17873077 93.66277337 -58.66503906 90.18115234 C-63.14436862 85.7075507 -67.61915232 81.22943299 -72.0926342 76.74998474 C-75.53076188 73.3082559 -78.97125233 69.86889699 -82.4124794 66.43026733 C-84.06472402 64.77869162 -85.71622111 63.12636774 -87.36697006 61.47329712 C-89.66265434 59.1750903 -91.96148989 56.88008429 -94.26123047 54.5859375 C-94.94794327 53.89720047 -95.63465607 53.20846344 -96.34217834 52.49885559 C-96.96449844 51.87935532 -97.58681854 51.25985504 -98.22799683 50.62158203 C-98.77105909 50.07889679 -99.31412136 49.53621155 -99.87364006 48.9770813 C-103.00140938 46.15806853 -106.0477549 51.10813358 -108.5234375 53.265625 Z M-311.1484375 219.828125 C-310.21147497 235.87549124 -309.25921069 251.92100861 -308.0859375 267.953125 C-307.96726318 269.60211792 -307.96726318 269.60211792 -307.84619141 271.28442383 C-307.45576683 276.50440853 -306.97584492 281.65865916 -306.1484375 286.828125 C-301.70016704 284.01729538 -297.90111019 280.94146275 -294.0859375 277.328125 C-288.38999622 271.97496124 -288.38999622 271.97496124 -285.26953125 270.078125 C-282.81471343 267.47411935 -282.83341304 266.9205219 -282.84375 263.484375 C-282.95789818 261.76344898 -283.10273207 260.04436386 -283.2734375 258.328125 C-283.43034866 256.51828637 -283.58660134 254.70839052 -283.7421875 252.8984375 C-283.82339844 252.02477539 -283.90460938 251.15111328 -283.98828125 250.25097656 C-284.1484375 247.828125 -284.1484375 247.828125 -283.9296875 244.1953125 C-283.7561433 240.87194098 -283.80277402 238.88561889 -285.1484375 235.828125 C-288.93218378 232.0578632 -293.64654226 229.49021473 -298.27490234 226.90039062 C-300.76933246 225.47277307 -303.1080769 223.85128267 -305.4609375 222.203125 C-308.07262104 220.27130813 -308.07262104 220.27130813 -311.1484375 219.828125 Z " fill="#000000" transform="translate(477.1484375,93.171875)"/>
<path d="M0 0 C4.94097451 -0.18299906 8.25253937 0.36180946 12.5078125 3.1640625 C15.18991161 7.18721116 15.19624665 10.43626169 14.5078125 15.1640625 C12.39389373 18.66296254 11.39045191 19.86984936 7.5078125 21.1640625 C2.85241381 21.6722664 -1.8164488 21.91772166 -6.4921875 22.1640625 C-8.29236328 22.26460938 -8.29236328 22.26460938 -10.12890625 22.3671875 C-11.82466797 22.42132813 -11.82466797 22.42132813 -13.5546875 22.4765625 C-15.08802734 22.53263672 -15.08802734 22.53263672 -16.65234375 22.58984375 C-20.26389908 22.04835884 -21.88823529 20.66589894 -24.4921875 18.1640625 C-26.0469544 15.05452871 -25.77863187 12.60139489 -25.4921875 9.1640625 C-23.9921875 5.8515625 -23.9921875 5.8515625 -21.4921875 3.1640625 C-14.60800247 0.62778381 -7.27012191 0.47859737 0 0 Z " fill="#000000" transform="translate(117.4921875,312.8359375)"/>
<path d="M0 0 C2.8367179 1.70705148 3.34742379 2.91519108 5 6 C5.67533814 12.6017749 4.35844235 16.17274541 0.75 21.625 C0.35425781 22.2540625 -0.04148437 22.883125 -0.44921875 23.53125 C-1.61190053 25.36866842 -2.80412349 27.18407659 -4 29 C-5.04414062 30.65128906 -5.04414062 30.65128906 -6.109375 32.3359375 C-8 35 -8 35 -11 37 C-17.94677871 37.67226891 -17.94677871 37.67226891 -21.9375 35.125 C-25.05415457 31.91390135 -25.57266154 29.33989001 -25.55078125 24.83984375 C-24.35248849 18.6614123 -20.3620948 13.23333369 -17 8 C-16.31421875 6.91074219 -15.6284375 5.82148438 -14.921875 4.69921875 C-11.00020476 -0.80865551 -6.31255979 -1.12580684 0 0 Z " fill="#000000" transform="translate(25,365)"/>
<path d="M0 0 C2.87029869 1.79393668 4.49131638 2.98263276 6 6 C6.38566007 11.10999586 5.98955144 13.85215914 3 18 C-2.31722093 22.42811186 -8.02252731 25.94270675 -15.05859375 26.20703125 C-18.03478569 25.88965062 -19.76703459 24.96230294 -22 23 C-24.56446145 19.58071806 -24.29641484 16.1498078 -24 12 C-22.24579622 6.6190068 -17.04493369 4.32561125 -12.40234375 1.65625 C-8.06868917 -0.45335912 -4.68603769 -1.34723584 0 0 Z " fill="#000000" transform="translate(65,329)"/>
<path d="M0 0 C2.82275936 1.25455972 4.46288541 2.28384722 6.3125 4.75 C7.7090016 9.32036889 7.38597581 13.06414086 5.57421875 17.45703125 C4.95160156 18.56433594 4.32898438 19.67164063 3.6875 20.8125 C3.07261719 21.93269531 2.45773438 23.05289062 1.82421875 24.20703125 C0 27 0 27 -3 29 C-7.38263857 29.7058182 -10.98906922 29.48440433 -15 27.5625 C-17.38699032 24.50416866 -18.09613687 22.48897217 -18.33203125 18.64453125 C-17.52616929 12.22607774 -14.20307834 6.05804811 -9.5078125 1.671875 C-6.11266424 -0.59155718 -4.00783125 -0.50097891 0 0 Z " fill="#000000" transform="translate(54,403)"/>
<path d="M0 0 C1.45140365 3.56253622 1.67188626 5.61027432 1.3203125 9.34765625 C-0.19749777 12.60279479 -2.57655324 14.61230675 -5.625 16.375 C-8.50983509 16.97444625 -10.80313262 17.2942054 -13.6875 17.375 C-14.38166016 17.42527344 -15.07582031 17.47554688 -15.79101562 17.52734375 C-20.31421249 17.74212043 -23.03917412 17.14196325 -26.625 14.375 C-29.16491871 11.41176151 -29.8818596 9.19740538 -29.6875 5.375 C-29.02497165 1.76182993 -27.70945732 -0.52653029 -24.62109375 -2.71875 C-17.07855206 -6.14315249 -5.99814673 -5.99814673 0 0 Z " fill="#000000" transform="translate(133.625,360.625)"/>
<path d="M0 0 C3.02182284 2.05741129 4.69011377 3.49949825 5.4453125 7.15625 C5.6476437 11.20287393 5.34474986 13.44126746 3.1875 16.9375 C-1.09224776 20.97269074 -3.85988872 21.51684503 -9.546875 21.3671875 C-12 21 -12 21 -15.125 19.0625 C-17.65548662 14.92937186 -18.04015764 11.72647633 -17 7 C-15.25386369 3.63601495 -12.87400009 1.52900006 -9.625 -0.4375 C-6.02593587 -1.20872803 -3.55901156 -0.95330667 0 0 Z " fill="#000000" transform="translate(83,372)"/>
</svg>
